<svg xmlns="http://www.w3.org/2000/svg" viewBox="0 0 131.363 176.466">
  <g fill="none" stroke="#1e1e1e" stroke-linecap="round" stroke-width="4">
    <path d="M15.92 10.329c17.544 13.412 88.006 65.24 105.444 78.547M17.708 10.005c17.434 13.607 85.08 66.951 102.66 80.005"/>
    <path d="M96.535 82.471c7.648 2.091 10.27 2.528 23.834 7.539m-23.834-7.54c8.192 3.039 17.649 6.249 23.834 7.539"/>
    <path d="M106.95 68.908c5.073 5.27 5.195 8.95 13.419 21.102M106.95 68.908c4.64 7.793 10.41 15.8 13.418 21.102"/>
  </g>
  <g fill="none" stroke="#1e1e1e" stroke-linecap="round" stroke-width="4">
    <path d="M10.002 149.805c.133-22.04 1.017-111.651 1.136-134.021m.547 133.601c.065-22.292-1.133-112.555-1.442-135.176"/>
    <path d="M19.106 37.583c-.196-5.486-2.052-11.622-8.863-23.374m8.863 23.374c-3.976-9.713-7.008-17.638-8.863-23.374m-8.239 23.61c3.775-5.404 5.886-11.59 8.239-23.61m-8.239 23.61c2.484-9.972 5.914-17.976 8.239-23.61"/>
  </g>
  <g fill="none" stroke="#1e1e1e" stroke-linecap="round" stroke-width="4">
    <path d="M106.5 91.114c-15.178 12.252-77.313 62.884-92.812 75.351m91.674-73.344c-15.29 11.847-77.245 59.194-92.74 71.56"/>
    <path d="M25.9 143.497c-4.62 4.233-4.688 8.955-13.277 21.185M25.9 143.497c-3.97 7.358-8.07 14.308-13.277 21.185m23.788-7.692c-7.145 1.187-9.636 2.799-23.788 7.692m23.788-7.692c-7.332 3.18-14.769 5.845-23.788 7.692"/>
  </g>
</svg>